<svg width="655" height="25" viewBox="0 0 655 25" fill="none"
  xmlns="http://www.w3.org/2000/svg">
  <g style="mix-blend-mode:multiply" opacity="0.55">
    <path d="M11 25L11 1H10.428C9.815 1 9.203 1.109 8.676 1.422C6.926 2.462 3 5.617 3 13C3 15.189 2.065 18.067 1.099 20.456C0.249 22.557 1.742 25 4.009 25H11ZM607.013 24V0H606.441C605.828 0 605.216 0.109 604.689 0.422C602.939 1.462 599.013 4.617 599.013 12C599.013 14.189 598.078 17.067 597.112 19.456C596.262 21.557 597.755 24 600.022 24H607.013ZM11 25C110.348 25 309.029 24.75 458.033 24.5C532.534 24.375 594.626 24.25 625.677 24.1562C633.438 24.1328 639.27 24.1112 642.874 24.0921C644.663 24.0826 645.944 24.0735 646.638 24.0646C646.811 24.0624 646.983 24.0598 647.13 24.0564C647.198 24.0548 647.311 24.052 647.438 24.0469C647.508 24.044 647.671 24.0355 647.774 24.0291C647.971 24.0146 648.714 23.9306 649.262 23.8383C655.7 20.3184 656.784 5.10446 649.349 0.284879C648.758 0.182008 647.962 0.0907898 647.757 0.075861C647.495 0.0590038 647.272 0.053566 647.233 0.0525217C647.07 0.0481625 646.888 0.0456028 646.734 0.0437956C644.313 0.0153694 631.788 0 607.013 0V24C631.907 24 644.216 24.0159 646.452 24.0421C646.59 24.0438 646.62 24.0447 646.591 24.0439C646.58 24.0436 646.527 24.0419 646.499 24.0409C646.452 24.039 646.303 24.0316 646.211 24.0261C646.02 24.0121 645.234 23.9218 644.647 23.8198C637.217 19.0012 638.301 3.78818 644.734 0.269221C645.277 0.177905 646.011 0.0948 646.193 0.0812597C646.282 0.0757866 646.426 0.0683384 646.472 0.0663528C646.55 0.0631876 646.597 0.0623064 646.578 0.0627375C646.554 0.0632868 646.479 0.0646915 646.331 0.0665989C645.74 0.0741711 644.547 0.0829 642.747 0.092454C639.173 0.111418 633.364 0.132869 625.604 0.156304C594.572 0.250027 532.495 0.375015 457.993 0.500017C308.99 0.750016 110.327 1 11 1L11 25Z" fill="#F2B848"/>
  </g>
</svg>
